HIERARCHY
ROOT Hips
{
  OFFSET 639.274 91.6836 315.052
  CHANNELS 6 Xposition Yposition Zposition Zrotation Xrotation Yrotation
  JOINT RightUpLeg
  {
    OFFSET -9.25985 -1.60365 -0.0187739
    CHANNELS 3 Zrotation Xrotation Yrotation
    JOINT RightLeg
    {
      OFFSET -0.094831 -41.8688 0.0174557
      CHANNELS 3 Zrotation Xrotation Yrotation
      JOINT RightFoot
      {
        OFFSET 0.650373 -40.2339 0.621458
        CHANNELS 3 Zrotation Xrotation Yrotation
        End Site
        {
          OFFSET 0 -7.69 17.5
        }
      }
    }
  }
  JOINT LeftUpLeg
  {
    OFFSET 9.2903 -1.58411 0.0508507
    CHANNELS 3 Zrotation Xrotation Yrotation
    JOINT LeftLeg
    {
      OFFSET 0.0129639 -41.8667 -0.0374806
      CHANNELS 3 Zrotation Xrotation Yrotation
      JOINT LeftFoot
      {
        OFFSET -0.538477 -42.8324 -0.561746
        CHANNELS 3 Zrotation Xrotation Yrotation
        End Site
        {
          OFFSET 0 -7.69 17.5
        }
      }
    }
  }
  JOINT Spine
  {
    OFFSET -0.0214982 14.3015 0.0443202
    CHANNELS 3 Zrotation Xrotation Yrotation
    JOINT Spine1
    {
      OFFSET 0.0022465 9.72014 0.00669841
      CHANNELS 3 Zrotation Xrotation Yrotation
      JOINT Spine2
      {
        OFFSET 0.00146158 10.1173 0.0197944
        CHANNELS 3 Zrotation Xrotation Yrotation
        JOINT Spine3
        {
          OFFSET -0.0156274 9.7076 0.00989878
          CHANNELS 3 Zrotation Xrotation Yrotation
          JOINT Neck
          {
            OFFSET 0.165589 10.3915 -0.00835134
            CHANNELS 3 Zrotation Xrotation Yrotation
            JOINT Head
            {
              OFFSET 0.0812125 9.44463 -0.145599
              CHANNELS 3 Zrotation Xrotation Yrotation
              End Site
              {
                OFFSET 0 15.95 0
              }
            }
          }
          JOINT RightShoulder
          {
            OFFSET -3.21994 6.90495 0.0220692
            CHANNELS 3 Zrotation Xrotation Yrotation
            JOINT RightArm
            {
              OFFSET -12.8037 -0.0606308 0.0147852
              CHANNELS 3 Zrotation Xrotation Yrotation
              JOINT RightForeArm
              {
                OFFSET -26.4637 -0.0789474 -0.0354015
                CHANNELS 3 Zrotation Xrotation Yrotation
                JOINT RightHand
                {
                  OFFSET -25.9947 0.0146297 0.104278
                  CHANNELS 3 Zrotation Xrotation Yrotation
                  JOINT RightHandThumb1
                  {
                    OFFSET -2.48905 0.190105 3.12053
                    CHANNELS 3 Zrotation Xrotation Yrotation
                    JOINT RightHandThumb2
                    {
                      OFFSET -3.68274 0 0
                      CHANNELS 3 Zrotation Xrotation Yrotation
                      JOINT RightHandThumb3
                      {
                        OFFSET -2.55832 0 0
                        CHANNELS 3 Zrotation Xrotation Yrotation
                        End Site
                        {
                          OFFSET -2.194 0 0
                        }
                      }
                    }
                  }
                  JOINT RightInHandIndex
                  {
                    OFFSET -3.22368 0.508421 1.97842
                    CHANNELS 3 Zrotation Xrotation Yrotation
                    JOINT RightHandIndex1
                    {
                      OFFSET -5.21684 -0.091368 0.999158
                      CHANNELS 3 Zrotation Xrotation Yrotation
                      JOINT RightHandIndex2
                      {
                        OFFSET -3.61937 0 0
                        CHANNELS 3 Zrotation Xrotation Yrotation
                        JOINT RightHandIndex3
                        {
                          OFFSET -2.0521 0 0
                          CHANNELS 3 Zrotation Xrotation Yrotation
                          End Site
                          {
                            OFFSET -1.805 0 0
                          }
                        }
                      }
                    }
                  }
                  JOINT RightInHandMiddle
                  {
                    OFFSET -3.38211 0.517263 0.756737
                    CHANNELS 3 Zrotation Xrotation Yrotation
                    JOINT RightHandMiddle1
                    {
                      OFFSET -5.17411 -0.084 0.313895
                      CHANNELS 3 Zrotation Xrotation Yrotation
                      JOINT RightHandMiddle2
                      {
                        OFFSET -3.94947 0 0
                        CHANNELS 3 Zrotation Xrotation Yrotation
                        JOINT RightHandMiddle3
                        {
                          OFFSET -2.47579 0 0
                          CHANNELS 3 Zrotation Xrotation Yrotation
                          End Site
                          {
                            OFFSET -1.975 0 0
                          }
                        }
                      }
                    }
                  }
                  JOINT RightInHandRing
                  {
                    OFFSET -3.36516 0.537895 -0.128947
                    CHANNELS 3 Zrotation Xrotation Yrotation
                    JOINT RightHandRing1
                    {
                      OFFSET -4.63474 -0.022105 -0.478947
                      CHANNELS 3 Zrotation Xrotation Yrotation
                      JOINT RightHandRing2
                      {
                        OFFSET -3.44238 0 0
                        CHANNELS 3 Zrotation Xrotation Yrotation
                        JOINT RightHandRing3
                        {
                          OFFSET -2.3881 0 0
                          CHANNELS 3 Zrotation Xrotation Yrotation
                          End Site
                          {
                            OFFSET -1.857 0 0
                          }
                        }
                      }
                    }
                  }
                  JOINT RightInHandPinky
                  {
                    OFFSET -3.16105 0.469368 -1.20179
                    CHANNELS 3 Zrotation Xrotation Yrotation
                    JOINT RightHandPinky1
                    {
                      OFFSET -4.14105 -0.022105 -1.09053
                      CHANNELS 3 Zrotation Xrotation Yrotation
                      JOINT RightHandPinky2
                      {
                        OFFSET -2.75653 0 0
                        CHANNELS 3 Zrotation Xrotation Yrotation
                        JOINT RightHandPinky3
                        {
                          OFFSET -1.74189 0 0
                          CHANNELS 3 Zrotation Xrotation Yrotation
                          End Site
                          {
                            OFFSET -1.645 0 0
                          }
                        }
                      }
                    }
                  }
                }
              }
            }
          }
          JOINT LeftShoulder
          {
            OFFSET 3.19857 6.92241 -0.0483269
            CHANNELS 3 Zrotation Xrotation Yrotation
            JOINT LeftArm
            {
              OFFSET 12.7761 -0.0372945 -0.0469981
              CHANNELS 3 Zrotation Xrotation Yrotation
              JOINT LeftForeArm
              {
                OFFSET 26.5223 -0.0536086 0.0116233
                CHANNELS 3 Zrotation Xrotation Yrotation
                JOINT LeftHand
                {
                  OFFSET 26.014 0.0546016 -0.0883512
                  CHANNELS 3 Zrotation Xrotation Yrotation
                  JOINT LeftHandThumb1
                  {
                    OFFSET 2.48905 0.190105 3.12053
                    CHANNELS 3 Zrotation Xrotation Yrotation
                    JOINT LeftHandThumb2
                    {
                      OFFSET 3.68274 0 0
                      CHANNELS 3 Zrotation Xrotation Yrotation
                      JOINT LeftHandThumb3
                      {
                        OFFSET 2.55832 0 0
                        CHANNELS 3 Zrotation Xrotation Yrotation
                        End Site
                        {
                          OFFSET 2.194 0 0
                        }
                      }
                    }
                  }
                  JOINT LeftInHandIndex
                  {
                    OFFSET 3.22368 0.508421 1.97842
                    CHANNELS 3 Zrotation Xrotation Yrotation
                    JOINT LeftHandIndex1
                    {
                      OFFSET 5.21684 -0.091368 0.999158
                      CHANNELS 3 Zrotation Xrotation Yrotation
                      JOINT LeftHandIndex2
                      {
                        OFFSET 3.61937 0 0
                        CHANNELS 3 Zrotation Xrotation Yrotation
                        JOINT LeftHandIndex3
                        {
                          OFFSET 2.0521 0 0
                          CHANNELS 3 Zrotation Xrotation Yrotation
                          End Site
                          {
                            OFFSET 1.805 0 0
                          }
                        }
                      }
                    }
                  }
                  JOINT LeftInHandMiddle
                  {
                    OFFSET 3.38211 0.517263 0.756737
                    CHANNELS 3 Zrotation Xrotation Yrotation
                    JOINT LeftHandMiddle1
                    {
                      OFFSET 5.17411 -0.084 0.313895
                      CHANNELS 3 Zrotation Xrotation Yrotation
                      JOINT LeftHandMiddle2
                      {
                        OFFSET 3.94947 0 0
                        CHANNELS 3 Zrotation Xrotation Yrotation
                        JOINT LeftHandMiddle3
                        {
                          OFFSET 2.47579 0 0
                          CHANNELS 3 Zrotation Xrotation Yrotation
                          End Site
                          {
                            OFFSET 1.975 0 0
                          }
                        }
                      }
                    }
                  }
                  JOINT LeftInHandRing
                  {
                    OFFSET 3.36516 0.537895 -0.128947
                    CHANNELS 3 Zrotation Xrotation Yrotation
                    JOINT LeftHandRing1
                    {
                      OFFSET 4.63474 -0.022105 -0.478947
                      CHANNELS 3 Zrotation Xrotation Yrotation
                      JOINT LeftHandRing2
                      {
                        OFFSET 3.44238 0 0
                        CHANNELS 3 Zrotation Xrotation Yrotation
                        JOINT LeftHandRing3
                        {
                          OFFSET 2.3881 0 0
                          CHANNELS 3 Zrotation Xrotation Yrotation
                          End Site
                          {
                            OFFSET 1.857 0 0
                          }
                        }
                      }
                    }
                  }
                  JOINT LeftInHandPinky
                  {
                    OFFSET 3.16105 0.469368 -1.20179
                    CHANNELS 3 Zrotation Xrotation Yrotation
                    JOINT LeftHandPinky1
                    {
                      OFFSET 4.14105 -0.022105 -1.09053
                      CHANNELS 3 Zrotation Xrotation Yrotation
                      JOINT LeftHandPinky2
                      {
                        OFFSET 2.75653 0 0
                        CHANNELS 3 Zrotation Xrotation Yrotation
                        JOINT LeftHandPinky3
                        {
                          OFFSET 1.74189 0 0
                          CHANNELS 3 Zrotation Xrotation Yrotation
                          End Site
                          {
                            OFFSET 1.645 0 0
                          }
                        }
                      }
                    }
                  }
                }
              }
            }
          }
        }
      }
    }
  }
}
MOTION
Frames:	4
Frame Time:	0.00833333
647.378 88.5637 293.935 47.0544 20.0275 -79.2556 13.283 -74.2879 30.9542 -1.24361 32.517 -19.6082 10.0416 -3.8202 20.7983 49.5843 -71.0869 32.4596 -0.556542 40.0493 -6.08459 -8.60398 -9.98219 21.5722 8.02961 -1.30003 -18.7512 2.05564 0.395896 -4.79299 3.40029 0.996412 -7.67414 -0.579556 -0.744076 1.93899 -0.937599 -1.22211 4.39786 -8.85155 -8.58889 34.5788 0.174358 -13.2852 -15.5264 81.0022 -19.5106 42.6005 7.86219 -8.24489 109.528 26.5473 -6.29798 33.0781 28.184 10.7294 19.1592 0 0 -10 -6.73965e-15 -1.59028e-15 -10 3.18055e-15 6.36111e-15 4.77083e-15 19.9818 0.871897 2.3964 24 0 6.36111e-15 20 -1.59028e-15 9.54166e-15 3.18055e-15 6.36111e-15 4.77083e-15 20 -3.18055e-15 -0 24 -2.38542e-15 -6.36111e-15 20 4.37326e-15 -6.36111e-15 3.18055e-15 6.36111e-15 4.77083e-15 19.9748 -1.02565 -2.81938 24 0 3.18055e-15 20 4.77083e-15 -6.36111e-15 3.18055e-15 6.36111e-15 4.77083e-15 19.7815 -3.00948 -8.30515 24 -6.36111e-15 1.59028e-14 20 -2.5842e-15 -9.54166e-15 1.97545 -15.9175 -33.7866 -0.887632 18.3555 -117.656 20.19 -10.7971 -15.8189 3.32192 20.9201 -20.5363 -28.184 10.7294 -19.1592 5.28741e-15 -7.95139e-16 10 4.2963e-15 1.39149e-15 10 3.18055e-15 -7.95139e-15 3.18055e-15 -19.9818 0.871897 -2.3964 -24 0 -3.18055e-15 -20 1.59028e-15 -1.59028e-14 3.18055e-15 -7.95139e-15 3.18055e-15 -20 1.98785e-16 -6.36111e-15 -24 7.95139e-15 -3.18055e-15 -20 4.77083e-15 -1.59028e-14 3.18055e-15 -7.95139e-15 3.18055e-15 -19.9748 -1.02565 2.81938 -24 3.97569e-15 -0 -20 1.59028e-15 -1.74931e-14 3.18055e-15 -7.95139e-15 3.18055e-15 -19.7815 -3.00948 8.30515 -24 3.18055e-15 4.77083e-15 -20 0 -1.11319e-14 
647.655 88.3735 294.291 46.571 22.2518 -75.8057 4.28291 -74.5004 21.4195 -0.917722 32.8418 -19.748 10.4963 -4.28205 18.9076 48.8738 -72.8426 31.7833 -0.56891 38.5783 -6.98909 -9.99089 -8.74404 19.1998 9.04885 -1.37335 -18.3605 2.31418 0.449281 -4.69846 3.8212 1.11379 -7.51438 -0.568082 -0.703393 1.8012 -0.576024 -0.674675 1.85595 -8.74119 -9.21519 33.8788 -0.749593 -14.1526 -14.959 82.3673 -18.1604 41.8607 7.39009 -6.38583 106.567 22.9211 0.324008 34.134 28.184 10.7294 19.1592 3.51003e-15 1.59028e-15 -10 7.02006e-15 3.18055e-15 -10 6.36111e-15 0 -4.77083e-15 19.9818 0.871897 2.3964 24 -7.95139e-16 -0 20 3.97569e-15 3.18055e-15 6.36111e-15 0 -4.77083e-15 20 3.18055e-15 -9.54166e-15 24 2.38542e-15 -6.36111e-15 20 1.19271e-15 9.54166e-15 6.36111e-15 0 -4.77083e-15 19.9748 -1.02565 -2.81938 24 3.18055e-15 9.54166e-15 20 1.59028e-15 6.36111e-15 6.36111e-15 0 -4.77083e-15 19.7815 -3.00948 -8.30515 24 6.36111e-15 6.36111e-15 20 -3.97569e-15 9.54166e-15 1.58638 -16.4576 -37.5612 -0.926018 18.3652 -117.636 20.1628 -10.7644 -15.7975 1.41796 20.4174 -12.457 -28.184 10.7294 -19.1592 -5.02091e-15 -3.57812e-15 10 -3.863e-15 -5.56597e-15 10 2.20695e-31 3.97569e-15 -3.18055e-15 -19.9818 0.871897 -2.3964 -24 3.97569e-15 3.18055e-15 -20 1.59028e-15 -4.77083e-15 2.20695e-31 3.97569e-15 -3.18055e-15 -20 3.8266e-15 4.77083e-15 -24 -7.95139e-16 -3.18055e-15 -20 3.18055e-15 6.36111e-15 2.20695e-31 3.97569e-15 -3.18055e-15 -19.9748 -1.02565 2.81938 -24 2.38542e-15 -1.27222e-14 -20 -3.97569e-15 9.54166e-15 2.20695e-31 3.97569e-15 -3.18055e-15 -19.7815 -3.00948 8.30515 -24 -5.36719e-15 -1.03368e-14 -20 -4.77083e-15 8.74653e-15 
647.935 88.4678 294.596 45.81 24.465 -72.0904 -4.94205 -74.0615 11.6577 -0.598902 33.0523 -19.9209 10.9879 -4.6884 17.0002 47.1712 -74.5504 30.077 -0.623923 37.0744 -7.73883 -11.3535 -7.33866 16.8096 10.1196 -1.49961 -17.9411 2.58748 0.486053 -4.59723 4.26208 1.19915 -7.33955 -0.557064 -0.665729 1.64928 -0.561114 -0.637136 1.67592 -8.63846 -9.02011 30.6905 -1.85745 -14.9676 -14.2953 83.7491 -17.036 41.0346 7.44028 -3.56838 104.335 18.2718 6.85258 34.6681 28.184 10.7294 19.1592 -3.65023e-15 -2.38542e-15 -10 5.89842e-15 -3.18055e-15 -10 -9.54166e-15 0 -4.77083e-15 19.9818 0.871897 2.3964 24 0 3.18055e-15 20 3.97569e-16 -3.18055e-15 -9.54166e-15 0 -4.77083e-15 20 0 -9.54166e-15 24 4.77083e-15 -0 20 5.56597e-15 -3.18055e-15 -9.54166e-15 0 -4.77083e-15 19.9748 -1.02565 -2.81938 24 -1.59028e-15 -3.18055e-15 20 5.1684e-15 6.36111e-15 -9.54166e-15 0 -4.77083e-15 19.7815 -3.00948 -8.30515 24 9.54166e-15 -3.18055e-15 20 -1.39149e-15 -0 1.05692 -16.941 -41.5323 -0.974756 18.374 -117.612 20.1563 -10.7565 -15.4445 -0.333661 19.4707 -4.28018 -28.184 10.7294 -19.1592 7.73584e-16 4.77083e-15 10 -8.07405e-15 0 10 -3.18055e-15 -4.37326e-15 -0 -19.9818 0.871897 -2.3964 -24 3.57812e-15 -1.82882e-14 -20 7.95139e-16 -1.19271e-14 -3.18055e-15 -4.37326e-15 -0 -20 -6.33626e-15 1.19271e-14 -24 1.03368e-14 -4.92986e-14 -20 5.96354e-15 -1.94809e-14 -3.18055e-15 -4.37326e-15 -0 -19.9748 -1.02565 2.81938 -24 3.26007e-14 -1.59425e-13 -20 3.97569e-16 -1.27222e-14 -3.18055e-15 -4.37326e-15 -0 -19.7815 -3.00948 8.30515 -24 9.74045e-15 -1.19271e-14 -20 -2.38542e-15 -2.14687e-14 
648.193 88.6545 294.89 44.7442 26.578 -68.1263 -13.3656 -72.906 2.6889 -0.32716 33.1473 -19.9879 11.5713 -5.10801 15.037 43.8466 -76.1569 26.8672 -0.60145 35.5839 -8.33948 -11.1124 -5.42558 14.6056 11.3701 -2.08043 -20.1269 2.9308 0.569995 -5.19367 4.80812 1.44019 -8.19328 -0.557517 -0.666606 1.65257 -0.561645 -0.637993 1.67976 -8.64492 -9.02568 30.7595 -2.56164 -15.4854 -9.13421 85.2436 -16.1729 40.2882 7.51402 -2.08726 100.257 29.0868 -6.70748 34.7288 28.184 10.7294 19.1592 -3.29096e-15 -3.47873e-16 -10 -1.40204e-16 -7.95139e-16 -10 9.54166e-15 3.18055e-15 -1.59028e-15 19.9818 0.871897 2.3964 24 2.38542e-15 -7.95139e-15 20 8.89561e-15 9.54166e-15 9.54166e-15 3.18055e-15 -1.59028e-15 20 2.38542e-15 -1.59028e-15 24 1.11319e-14 -4.77083e-15 20 -4.57205e-15 -0 9.54166e-15 3.18055e-15 -1.59028e-15 19.9748 -1.02565 -2.81938 24 7.95139e-16 -6.36111e-15 20 -2.78299e-15 1.59028e-15 9.54166e-15 3.18055e-15 -1.59028e-15 19.7815 -3.00948 -8.30515 24 3.97569e-15 -1.27222e-14 20 -3.23025e-16 3.18055e-15 2.09008 -15.9628 -36.3418 -3.33212 18.755 -116.359 19.5503 -9.85058 -0.115646 4.1257 18.6417 -17.9874 -28.184 10.7294 -19.1592 9.8389e-16 3.57812e-15 10 -6.65971e-16 3.77691e-15 10 3.18055e-15 1.59028e-15 -1.98785e-15 -19.9818 0.871897 -2.3964 -24 -1.14798e-14 5.60573e-14 -20 1.88845e-15 4.17448e-15 3.18055e-15 1.59028e-15 -1.98785e-15 -20 4.62174e-15 -1.27222e-14 -24 -3.97569e-15 2.42517e-14 -20 3.18055e-15 -6.75868e-15 3.18055e-15 1.59028e-15 -1.98785e-15 -19.9748 -1.02565 2.81938 -24 -7.95139e-15 1.35174e-14 -20 7.95139e-16 -3.18055e-15 3.18055e-15 1.59028e-15 -1.98785e-15 -19.7815 -3.00948 8.30515 -24 -3.18055e-15 -6.36111e-15 -20 9.54166e-15 1.74931e-14 
